<svg width="1200" height="800" viewBox="0 0 1200 800" xmlns="http://www.w3.org/2000/svg">
  <defs>
    <pattern id="grid" width="40" height="40" patternUnits="userSpaceOnUse">
      <path d="M 40 0 L 0 0 0 40" fill="none" stroke="#1a1a1a" stroke-width="0.5" opacity="0.1"/>
    </pattern>
    <linearGradient id="waveGradient" x1="0%" y1="0%" x2="100%" y2="0%">
      <stop offset="0%" style="stop-color:#60a5fa;stop-opacity:0.8" />
      <stop offset="100%" style="stop-color:#60a5fa;stop-opacity:0.3" />
    </linearGradient>
  </defs>
  
  <!-- Dark background with subtle grid -->
  <rect width="1200" height="800" fill="#0a0a0a"/>
  <rect width="1200" height="800" fill="url(#grid)"/>
  
  <!-- Hexagonal logo (left side) -->
  <g transform="translate(150, 400)">
    <!-- Outer hexagon -->
    <polygon points="0,-80 69.28,-40 69.28,40 0,80 -69.28,40 -69.28,-40" 
             fill="none" stroke="white" stroke-width="2" opacity="0.9"/>
    <!-- Middle hexagon -->
    <polygon points="0,-60 51.96,-30 51.96,30 0,60 -51.96,30 -51.96,-30" 
             fill="none" stroke="white" stroke-width="1.5" opacity="0.7"/>
    <!-- Inner hexagon -->
    <polygon points="0,-40 34.64,-20 34.64,20 0,40 -34.64,20 -34.64,-20" 
             fill="none" stroke="white" stroke-width="1" opacity="0.5"/>
    <!-- Center dot -->
    <circle cx="0" cy="0" r="4" fill="white" opacity="0.8"/>
  </g>
  
  <!-- UI element (right of logo) -->
  <g transform="translate(280, 350)">
    <rect x="0" y="0" width="200" height="100" rx="12" 
          fill="rgba(40,40,40,0.6)" stroke="rgba(255,255,255,0.1)" stroke-width="1"/>
    
    <!-- Bullet points -->
    <circle cx="20" cy="25" r="3" fill="rgba(255,255,255,0.4)"/>
    <circle cx="20" cy="50" r="3" fill="rgba(255,255,255,0.4)"/>
    <circle cx="20" cy="75" r="3" fill="rgba(255,255,255,0.4)"/>
    
    <!-- Text lines -->
    <rect x="35" y="20" width="120" height="2" fill="rgba(255,255,255,0.3)"/>
    <rect x="35" y="45" width="80" height="2" fill="rgba(255,255,255,0.3)"/>
    <rect x="35" y="70" width="100" height="2" fill="rgba(255,255,255,0.3)"/>
  </g>
  
  <!-- Wavy data flow lines -->
  <g transform="translate(500, 400)">
    <!-- First wave -->
    <path d="M 0,0 Q 50,-20 100,0 T 200,0 T 300,0" 
          stroke="url(#waveGradient)" stroke-width="3" fill="none" opacity="0.6"/>
    <circle cx="250" cy="0" r="4" fill="#60a5fa" opacity="0.7"/>
    
    <!-- Second wave -->
    <path d="M 0,20 Q 50,0 100,20 T 200,20 T 300,20" 
          stroke="url(#waveGradient)" stroke-width="2.5" fill="none" opacity="0.5"/>
    
    <!-- Third wave -->
    <path d="M 0,40 Q 50,20 100,40 T 200,40 T 300,40" 
          stroke="url(#waveGradient)" stroke-width="2" fill="none" opacity="0.4"/>
    <circle cx="280" cy="40" r="3" fill="#60a5fa" opacity="0.6"/>
  </g>
  
  <!-- Additional subtle elements -->
  <g opacity="0.2">
    <circle cx="800" cy="200" r="2" fill="#60a5fa"/>
    <circle cx="900" cy="300" r="1.5" fill="#60a5fa"/>
    <circle cx="1000" cy="150" r="2.5" fill="#60a5fa"/>
    <circle cx="1100" cy="250" r="1" fill="#60a5fa"/>
  </g>
</svg>
